<svg width="135" height="20" viewBox="0 0 135 20" fill="none" xmlns="http://www.w3.org/2000/svg">
<g clip-path="url(#clip0_275_43)">
<g clip-path="url(#clip1_275_43)">
<g clip-path="url(#clip2_275_43)">
<path d="M32.3068 5.66044V7.83137C32.3068 8.0406 32.2147 8.13673 32.0265 8.13673H25.7938V11.1446H29.9475C30.1609 11.1446 30.2528 11.2407 30.2528 11.4247V13.6417C30.2528 13.8299 30.1609 13.9012 29.9475 13.9012H25.7938V16.9337H32.0015V16.9798C32.0818 16.982 32.1582 17.0148 32.215 17.0716C32.2718 17.1284 32.3047 17.2048 32.3068 17.2852V19.4519C32.3057 19.5325 32.2732 19.6096 32.2162 19.6666C32.1591 19.7236 32.0821 19.7562 32.0015 19.7572H22.9493C22.8724 19.7518 22.8006 19.7171 22.7484 19.6603C22.6963 19.6036 22.6679 19.529 22.669 19.4519V5.64783C22.6688 5.57144 22.6977 5.49784 22.7497 5.44193C22.8018 5.38601 22.8731 5.35196 22.9493 5.34668H32.0265C32.2147 5.35928 32.3068 5.43877 32.3068 5.66044ZM47.6375 16.9796V16.9546H41.6641V5.68548C41.6641 5.45121 41.572 5.35928 41.3838 5.35928H38.8406C38.6524 5.35928 38.5603 5.45121 38.5603 5.68548V19.4517C38.5601 19.5285 38.5889 19.6026 38.6408 19.6592C38.6928 19.7157 38.7641 19.7507 38.8406 19.7571H47.6249C47.8131 19.7571 47.9052 19.6651 47.9052 19.4517V17.285C47.9176 17.0717 47.8257 16.9796 47.6375 16.9796ZM63.3238 5.35928H54.2424C54.1666 5.36559 54.0958 5.39995 54.044 5.45564C53.9921 5.51134 53.9629 5.58436 53.9621 5.66044V19.4643C53.962 19.5411 53.9908 19.6151 54.0427 19.6716C54.0946 19.7282 54.1659 19.7632 54.2424 19.7697H63.2985C63.3792 19.7686 63.4563 19.7361 63.5133 19.6791C63.5704 19.622 63.6029 19.545 63.6039 19.4643V17.285C63.6019 17.2046 63.5691 17.1281 63.5122 17.0713C63.4554 17.0144 63.3789 16.9816 63.2985 16.9796V16.9336H57.0911V13.901H61.2447C61.454 13.901 61.5501 13.8298 61.5501 13.6415V11.4246C61.5501 11.2405 61.454 11.1444 61.2447 11.1444H57.0911V8.13673H63.3238C63.5078 8.13673 63.6039 8.0406 63.6039 7.83137V5.66044C63.6039 5.4386 63.5078 5.35928 63.3238 5.35928ZM80.1478 15.2981C79.9637 15.1601 79.8214 15.1809 79.7043 15.3233C79.3101 15.9023 78.7769 16.3731 78.1535 16.6925C77.5301 17.0119 76.8365 17.1696 76.1363 17.1512C75.5691 17.1693 75.0049 17.0616 74.4842 16.836C73.9636 16.6103 73.4992 16.2723 73.1246 15.8461C72.3421 14.9588 71.925 13.8078 71.9574 12.6251C71.9336 11.4394 72.3595 10.2887 73.1496 9.4042C73.5218 8.98127 73.982 8.64493 74.4979 8.41877C75.0139 8.19261 75.5731 8.08212 76.1363 8.09505C76.7908 8.09837 77.4353 8.25665 78.0169 8.55693C78.5986 8.85721 79.1008 9.29095 79.4826 9.82266C79.6249 10.0109 79.7629 10.0317 79.9261 9.86854L81.5993 8.19538C81.6561 8.13554 81.6878 8.05616 81.6878 7.97363C81.6878 7.8911 81.6561 7.81172 81.5993 7.75188C80.925 6.95721 80.0842 6.32049 79.1365 5.88679C78.1889 5.45309 77.1574 5.23301 76.1153 5.24215C75.1489 5.22633 74.1898 5.41109 73.2985 5.78476C72.4071 6.15842 71.603 6.71287 70.9368 7.41308C70.2448 8.08968 69.6974 8.89979 69.3278 9.79427C68.9582 10.6888 68.7741 11.649 68.7867 12.6167C68.7735 13.5846 68.9573 14.545 69.327 15.4396C69.6966 16.3341 70.2443 17.1442 70.9368 17.8204C71.5984 18.5214 72.4037 19.0712 73.2974 19.4322C74.1912 19.7931 75.1524 19.9568 76.1153 19.9119C77.1875 19.9103 78.2461 19.6708 79.2146 19.2108C80.1832 18.7508 81.0376 18.0816 81.7164 17.2515C81.7495 17.2248 81.7762 17.1911 81.7945 17.1527C81.8129 17.1144 81.8225 17.0724 81.8226 17.0299C81.8225 16.9873 81.813 16.9454 81.7946 16.907C81.7762 16.8687 81.7495 16.8349 81.7164 16.8082L80.1478 15.2981ZM98.051 5.35928H87.4304C87.3562 5.36956 87.2878 5.40513 87.2367 5.45999C87.1856 5.51485 87.1551 5.58565 87.1501 5.66044V7.85658C87.1509 7.9327 87.18 8.00578 87.2319 8.0615C87.2838 8.11721 87.3546 8.15154 87.4304 8.15774H91.195V19.4517C91.195 19.6609 91.2661 19.753 91.4544 19.753H94.0103C94.0898 19.7519 94.1657 19.7198 94.2221 19.6636C94.2782 19.6073 94.3103 19.5314 94.3115 19.4517V8.15774H98.0761C98.2601 8.15774 98.3564 8.06144 98.3564 7.85238V5.66044C98.3582 5.62004 98.3516 5.57971 98.3368 5.54207C98.3221 5.50442 98.2995 5.47031 98.2707 5.44197C98.2419 5.41354 98.2075 5.39148 98.1697 5.37724C98.1318 5.36299 98.0914 5.35688 98.051 5.35928ZM115.369 19.4309C115.386 19.4662 115.394 19.5055 115.392 19.5448C115.39 19.5841 115.377 19.6222 115.356 19.6552C115.334 19.6881 115.304 19.7148 115.269 19.7327C115.234 19.7506 115.195 19.759 115.155 19.7571H112.566C112.478 19.7521 112.392 19.7235 112.318 19.6742C112.245 19.625 112.186 19.5568 112.148 19.4769L109.789 15.089H107.434V19.4769C107.432 19.5509 107.402 19.6214 107.35 19.6736C107.298 19.7259 107.227 19.7558 107.153 19.7571H104.606C104.532 19.756 104.462 19.726 104.41 19.6736C104.359 19.6211 104.33 19.5505 104.33 19.4769V5.67287C104.33 5.46381 104.422 5.37189 104.606 5.37189H111.516C112.034 5.37583 112.545 5.49675 113.01 5.72561C113.475 5.95448 113.882 6.28538 114.202 6.69364C114.958 7.6896 115.337 8.92093 115.272 10.1697C115.272 12.5289 114.248 14.2565 112.821 14.6748L115.369 19.4309ZM112.123 10.2282C112.123 8.85214 111.562 8.17454 110.449 8.17454H107.417V12.3072H110.424C111.579 12.2904 112.123 11.5877 112.123 10.2115V10.2283V10.2282ZM133.749 19.7571H131.139C131.042 19.7571 130.925 19.6651 130.833 19.4517L130.089 17.6572H124.074L123.291 19.4517C123.195 19.6651 123.103 19.7571 123.011 19.7571H120.363C120.326 19.7586 120.289 19.7507 120.256 19.7342C120.223 19.7177 120.194 19.6931 120.173 19.6626C120.152 19.6322 120.139 19.597 120.135 19.5601C120.131 19.5233 120.136 19.486 120.15 19.4517L126.148 5.47222C126.219 5.2882 126.311 5.1961 126.428 5.1961H127.683C127.8 5.1961 127.918 5.2882 127.964 5.47222L133.966 19.4517C133.986 19.5041 133.985 19.5618 133.965 19.6138C133.945 19.6659 133.906 19.7085 133.856 19.7335C133.823 19.75 133.786 19.7581 133.749 19.7571ZM128.85 14.9048L127.177 10.9812L127.035 10.6801L126.918 10.9812L125.245 14.9048H128.85ZM12.0945 17.306H2.57398C2.37831 17.3133 2.1934 17.3975 2.0594 17.5403L0.386242 19.3848C0.362556 19.4093 0.344492 19.4387 0.333308 19.4709C0.322123 19.5031 0.318086 19.5374 0.321477 19.5713C0.324867 19.6052 0.335604 19.638 0.352941 19.6674C0.370278 19.6967 0.393799 19.7219 0.42187 19.7413C0.459515 19.767 0.50383 19.7813 0.549424 19.7823H10.0866C10.1841 19.7827 10.2807 19.762 10.3695 19.7216C10.4583 19.6812 10.5373 19.6219 10.601 19.548L12.2743 17.7033C12.3097 17.6705 12.3338 17.6274 12.3433 17.5802C12.3528 17.5329 12.3472 17.4838 12.3272 17.4399C12.3073 17.3961 12.2742 17.3595 12.2324 17.3355C12.1907 17.3115 12.1424 17.3012 12.0945 17.306ZM12.7262 5.35928H8.47608L9.34224 0.456776C9.35471 0.381924 9.34291 0.305045 9.30857 0.237378C9.27422 0.169712 9.21913 0.114807 9.15135 0.0806907C9.08356 0.0465741 9.00665 0.0350353 8.93184 0.047761C8.85703 0.0604868 8.78825 0.0968097 8.73556 0.15142L1.33609 8.3668C1.24373 8.46616 1.1825 8.59041 1.15996 8.72418C1.13742 8.85795 1.15455 8.9954 1.20925 9.11955C1.26395 9.24369 1.35381 9.34909 1.46775 9.42274C1.58168 9.49638 1.71468 9.53504 1.85034 9.53394H5.95811L4.91247 15.4781C4.90765 15.5041 4.91176 15.5309 4.92412 15.5543C4.93649 15.5777 4.95639 15.5962 4.98059 15.6068C5.0048 15.6175 5.03189 15.6196 5.05748 15.6129C5.08306 15.6062 5.10563 15.5911 5.12153 15.57L13.2408 6.52626C13.3332 6.4269 13.3944 6.30265 13.417 6.16886C13.4395 6.03508 13.4224 5.89761 13.3677 5.77346C13.3129 5.64932 13.223 5.54392 13.1091 5.47031C12.9951 5.39671 12.8619 5.3581 12.7262 5.35928Z" fill="#0F172A"/>
</g>
</g>
</g>
<defs>
<clipPath id="clip0_275_43">
<rect width="133.94" height="20" fill="white" transform="translate(0.310547)"/>
</clipPath>
<clipPath id="clip1_275_43">
<rect width="133.94" height="20" fill="white" transform="translate(0.310547)"/>
</clipPath>
<clipPath id="clip2_275_43">
<rect width="133.94" height="19.9986" fill="white" transform="translate(0.310547 0.000732422)"/>
</clipPath>
</defs>
</svg>
