<svg width="32" height="33" viewBox="0 0 32 33" fill="none" xmlns="http://www.w3.org/2000/svg">
<g clip-path="url(#clip0_238_2103)">
<g clip-path="url(#clip1_238_2103)">
<path d="M16.4744 29.4607C10.5536 29.4447 5.39463 25.7046 3.71171 20.1261C2.30618 15.4515 3.21742 11.179 6.37877 7.44508C8.32217 5.15054 10.8283 3.74411 13.7746 3.14224C15.4226 2.80612 17.1202 2.79223 18.7735 3.10135C18.9584 3.13512 18.9602 3.18491 18.8882 3.33427C18.075 5.02696 17.2656 6.72201 16.4603 8.41946C16.4192 8.52861 16.3095 8.59624 16.1935 8.58392C12.7078 8.67304 9.73061 11.1242 8.97382 14.5279C8.16214 18.1435 10.118 21.8837 13.5691 23.2091C16.3082 24.2609 18.857 23.8421 21.1756 22.0445C21.2938 21.9557 21.3427 21.9378 21.4272 22.0845C22.3162 23.6403 23.213 25.1931 24.1174 26.743C24.1964 26.879 24.168 26.9403 24.0507 27.0222C22.3043 28.2577 20.284 29.0509 18.1636 29.3335C17.6032 29.4058 17.0394 29.4483 16.4744 29.4607Z" fill="#67EF3E"/>
<path d="M25.6737 25.6111C25.6007 25.5721 25.5803 25.4921 25.543 25.4271C24.5318 23.6787 23.5243 21.9286 22.5203 20.1766C22.4503 20.0294 22.2946 19.943 22.1327 19.9614C20.1253 19.9677 18.1187 19.9614 16.1114 19.9614H15.8614C15.8598 19.8843 15.8878 19.8095 15.9398 19.7525C16.9591 17.9815 17.9791 16.2107 18.9998 14.4398C19.0553 14.3197 19.1811 14.2482 19.3127 14.2619C21.3675 14.2673 23.4218 14.2673 25.4754 14.2619C25.6063 14.2482 25.7313 14.3199 25.7857 14.4398C26.8103 16.2255 27.8399 18.0089 28.8741 19.7898C28.9449 19.8834 28.9485 20.0117 28.883 20.109C27.8441 21.903 26.8089 23.6953 25.7777 25.4858C25.7501 25.5311 25.7377 25.5934 25.6737 25.6111Z" fill="#67EF3E"/>
<path d="M21.3458 6.80502C20.9778 6.43696 20.6346 6.08491 20.279 5.7382C20.1687 5.63151 20.2462 5.55239 20.2932 5.4715C20.7002 4.76292 21.3627 4.23683 22.1451 4.00106C23.1038 3.68468 24.1515 3.788 25.0299 4.28554C26.6302 5.15055 26.487 7.15707 25.5634 8.06387C25.2131 8.40108 24.8164 8.68639 24.3854 8.9111C23.9408 9.14758 23.4963 9.37072 23.0607 9.62232C22.699 9.82946 22.4171 10.1157 22.2864 10.53C22.2331 10.6971 22.2651 10.7407 22.4438 10.7389C23.6191 10.7318 24.7952 10.7389 25.9714 10.7318C26.1492 10.7318 26.2159 10.7656 26.2087 10.9594C26.1927 11.3746 26.199 11.7906 26.2087 12.204C26.2087 12.3356 26.1723 12.3818 26.0371 12.3818C24.1471 12.3783 22.2576 12.3783 20.3688 12.3818C20.2799 12.3818 20.1972 12.3818 20.1963 12.2529C20.1963 10.9443 20.4382 9.72544 21.4623 8.79198C21.9502 8.35996 22.4978 8.00066 23.0883 7.72515C23.4119 7.56691 23.7391 7.41578 24.0218 7.1864C24.269 6.98548 24.4396 6.7419 24.4574 6.41296C24.484 5.89822 24.0768 5.51594 23.4616 5.47594C22.5771 5.41282 21.9388 5.8111 21.4926 6.55076C21.448 6.62366 21.4071 6.69834 21.3458 6.80502Z" fill="#67EF3E"/>
<path d="M25.8522 27.4745V27.0469H25.6992V26.958H26.1091V27.0469H25.9543V27.4745H25.8522ZM26.1748 27.4745V26.9597H26.3304L26.4194 27.3109L26.5082 26.9597H26.6647V27.4745H26.5767V27.0691L26.4744 27.4745H26.374L26.2727 27.0691V27.4745H26.1748Z" fill="#67EF3E"/>
</g>
</g>
<defs>
<clipPath id="clip0_238_2103">
<rect width="32" height="32" fill="white" transform="translate(0 0.169922)"/>
</clipPath>
<clipPath id="clip1_238_2103">
<rect width="32" height="32" fill="white" transform="translate(0 0.169922)"/>
</clipPath>
</defs>
</svg>
