<svg width="32" height="32" viewBox="0 0 32 32" fill="none" xmlns="http://www.w3.org/2000/svg">
<g clip-path="url(#clip0_558_268)">
<path d="M22.1244 6.59694C22.1243 6.59688 22.1246 6.597 22.1244 6.59694C21.6198 6.73525 21.1344 6.97585 20.6987 7.32194C20.3239 7.61975 20.0169 7.97131 19.7799 8.35693C19.7797 8.35677 19.7802 8.35701 19.7799 8.35693C20.0169 7.97131 20.3239 7.61975 20.6987 7.32194C21.1344 6.97585 21.6198 6.73525 22.1244 6.59694Z" fill="#273F2B"/>
<path d="M18.9918 5.27898C18.1316 5.0653 17.232 4.9519 16.3057 4.9519C10.1728 4.9519 5.20117 9.92355 5.20117 16.0564C5.20117 17.947 5.6736 19.7272 6.50685 21.2853L5.20117 27.161L11.0768 25.8553C12.635 26.6886 14.4152 27.161 16.3057 27.161C22.4385 27.161 27.4102 22.1892 27.4102 16.0564C27.4102 15.9008 27.407 15.7458 27.4007 15.5916C27.374 15.6136 27.347 15.6353 27.3198 15.6568C26.526 16.2876 25.6324 16.7077 24.7068 16.9251C24.272 21.1811 20.6765 24.5016 16.3057 24.5016C14.8632 24.5016 13.5127 24.1422 12.3308 23.5102L11.4619 23.0456L8.70372 23.6584L9.3166 20.9003L8.85196 20.0313C8.21996 18.8495 7.86049 17.4989 7.86049 16.0564C7.86049 11.3923 11.6416 7.61122 16.3057 7.61122C16.588 7.61122 16.8671 7.62508 17.1422 7.65214C17.5557 6.75691 18.1752 5.94067 18.9918 5.27898Z" fill="#273F2B"/>
<path d="M20.6991 7.32195C18.9729 8.69334 18.6852 11.2045 20.0566 12.9307C21.428 14.6569 23.9391 14.9446 25.6654 13.5732C27.3916 12.2018 27.6793 9.69069 26.3079 7.96446C24.9365 6.23822 22.4254 5.95055 20.6991 7.32195Z" fill="#3DC712"/>
</g>
<defs>
<clipPath id="clip0_558_268">
<rect width="32" height="32" fill="white"/>
</clipPath>
</defs>
</svg>
