<svg width="80" height="81" viewBox="0 0 80 81" fill="none" xmlns="http://www.w3.org/2000/svg">
<rect y="0.169922" width="80" height="80" rx="40" fill="white" fill-opacity="0.16"/>
<g clip-path="url(#clip0_238_1999)">
<g clip-path="url(#clip1_238_1999)">
<path d="M24.6844 53.3775C24.6844 56.6846 27.3652 59.3654 30.6723 59.3654C33.9793 59.3654 36.6602 56.6846 36.6602 53.3775C36.6602 50.0705 33.9793 47.3896 30.6723 47.3896C27.3652 47.3896 24.6844 50.0705 24.6844 53.3775Z" fill="#3DC712"/>
<path d="M17.8875 30.3736C17.8875 33.6807 20.5684 36.3615 23.8754 36.3615C27.1824 36.3615 29.8633 33.6807 29.8633 30.3736C29.8633 27.0666 27.1824 24.3857 23.8754 24.3857C20.5684 24.3857 17.8875 27.0666 17.8875 30.3736Z" fill="#3DC712"/>
<path d="M33.527 32.2402C33.6431 31.636 33.704 31.012 33.704 30.3737C33.704 29.6978 33.6358 29.0378 33.5059 28.4002H34.4078C37.2355 28.4002 39.5277 30.6926 39.5277 33.5202V42.1787C39.5277 42.8856 40.1008 43.4588 40.8077 43.4588H43.2713V31.3408C43.2713 28.5131 45.5637 26.2209 48.3914 26.2209H50.8934L50.8935 20.9746L59.8082 28.1639L50.8933 35.3069L50.8934 30.0609H48.3914C47.6845 30.0609 47.1113 30.6339 47.1113 31.3408V43.4588H53.1985L53.1986 37.9858L62.1133 45.1752L53.1982 52.3181L53.1983 47.2988H47.1113V50.1368C47.1113 52.9644 44.8191 55.2568 41.9914 55.2568H40.517C40.6348 54.6485 40.6965 54.0202 40.6965 53.3775C40.6965 52.7061 40.6292 52.0504 40.5009 51.4168H41.9914C42.6983 51.4168 43.2713 50.8437 43.2713 50.1368V47.2988H40.8077C37.9801 47.2988 35.6877 45.0065 35.6877 42.1787V33.5202C35.6877 32.8133 35.1147 32.2402 34.4078 32.2402H33.527Z" fill="white"/>
</g>
</g>
<defs>
<clipPath id="clip0_238_1999">
<rect width="48" height="48" fill="white" transform="translate(16 16.1699)"/>
</clipPath>
<clipPath id="clip1_238_1999">
<rect width="48" height="48" fill="white" transform="translate(16 16.1699)"/>
</clipPath>
</defs>
</svg>
