<svg width="80" height="81" viewBox="0 0 80 81" fill="none" xmlns="http://www.w3.org/2000/svg">
<rect y="0.169922" width="80" height="80" rx="40" fill="white" fill-opacity="0.16"/>
<g clip-path="url(#clip0_238_2010)">
<g clip-path="url(#clip1_238_2010)">
<path fill-rule="evenodd" clip-rule="evenodd" d="M40.0001 30.19C34.4884 30.19 30.0202 34.6582 30.0202 40.1699C30.0202 45.6816 34.4884 50.1497 40.0001 50.1497C45.5118 50.1497 49.9799 45.6816 49.9799 40.1699C49.9799 34.6582 45.5118 30.19 40.0001 30.19ZM26.0283 40.1699C26.0283 32.4534 32.2836 26.1981 40.0001 26.1981C47.7165 26.1981 53.9718 32.4534 53.9718 40.1699C53.9718 47.8863 47.7165 54.1416 40.0001 54.1416C32.2836 54.1416 26.0283 47.8863 26.0283 40.1699Z" fill="white"/>
<path fill-rule="evenodd" clip-rule="evenodd" d="M39.9996 22.2063C30.0784 22.2063 22.0359 30.249 22.0359 40.17C22.0359 50.0911 30.0784 58.1336 39.9996 58.1336C49.9207 58.1336 57.9632 50.0911 57.9632 40.17C57.9632 30.249 49.9207 22.2063 39.9996 22.2063ZM18.0439 40.17C18.0439 28.0442 27.8738 18.2144 39.9996 18.2144C52.1253 18.2144 61.9551 28.0442 61.9551 40.17C61.9551 52.2957 52.1253 62.1255 39.9996 62.1255C27.8738 62.1255 18.0439 52.2957 18.0439 40.17Z" fill="white"/>
<path d="M34.0125 40.1703C34.0125 43.4773 36.6934 46.1582 40.0004 46.1582C43.3074 46.1582 45.9883 43.4773 45.9883 40.1703C45.9883 36.8632 43.3074 34.1824 40.0004 34.1824C36.6934 34.1824 34.0125 36.8632 34.0125 40.1703Z" fill="#67EF3E"/>
</g>
</g>
<defs>
<clipPath id="clip0_238_2010">
<rect width="48" height="48" fill="white" transform="translate(16 16.1699)"/>
</clipPath>
<clipPath id="clip1_238_2010">
<rect width="48" height="48" fill="white" transform="translate(16 16.1699)"/>
</clipPath>
</defs>
</svg>
