<svg width="624" height="105" viewBox="0 0 624 105" fill="none" xmlns="http://www.w3.org/2000/svg">
<rect x="0.629883" y="0.169922" width="622.73" height="104" rx="52" fill="#78EB54"/>
<rect x="16.6299" y="16.1699" width="128" height="72" rx="36" fill="white"/>
<rect x="48.6299" y="44.1699" width="16" height="16" rx="8" fill="#273F2B"/>
<rect x="72.6299" y="44.1699" width="16" height="16" rx="8" fill="#273F2B"/>
<rect x="96.6299" y="44.1699" width="16" height="16" rx="8" fill="#273F2B"/>
<path d="M162.572 39.3302V32.3972H195.237V39.3302H183.06V72.1699H174.748V39.3302H162.572ZM202.612 72.1699H193.601L207.331 32.3972H218.167L231.878 72.1699H222.867L212.904 41.4859H212.594L202.612 72.1699ZM202.048 56.5366H223.333V63.1007H202.048V56.5366ZM236.665 72.1699V32.3972H245.074V65.2369H262.125V72.1699H236.665ZM267.694 72.1699V32.3972H276.103V49.9337H276.627L290.94 32.3972H301.019L286.26 50.2056L301.194 72.1699H291.134L280.239 55.818L276.103 60.8673V72.1699H267.694ZM324.911 72.1699H315.9L329.63 32.3972H340.467L354.177 72.1699H345.166L335.204 41.4859H334.893L324.911 72.1699ZM324.348 56.5366H345.632V63.1007H324.348V56.5366ZM358.964 72.1699V32.3972H374.889C377.815 32.3972 380.255 32.8309 382.21 33.6984C384.165 34.5658 385.635 35.7698 386.619 37.3105C387.603 38.8383 388.095 40.599 388.095 42.5928C388.095 44.1465 387.784 45.5124 387.163 46.6905C386.541 47.8557 385.687 48.8138 384.599 49.5647C383.524 50.3027 382.295 50.827 380.909 51.1378V51.5262C382.424 51.5909 383.842 52.0181 385.162 52.8079C386.496 53.5977 387.577 54.7046 388.405 56.1288C389.234 57.54 389.648 59.2231 389.648 61.178C389.648 63.2884 389.124 65.1721 388.075 66.8293C387.04 68.4736 385.505 69.7748 383.473 70.7328C381.44 71.6909 378.935 72.1699 375.957 72.1699H358.964ZM367.373 65.2951H374.229C376.572 65.2951 378.281 64.8485 379.356 63.9551C380.43 63.0489 380.967 61.8448 380.967 60.343C380.967 59.2425 380.702 58.2715 380.171 57.4299C379.64 56.5884 378.883 55.9281 377.899 55.4491C376.928 54.97 375.769 54.7305 374.423 54.7305H367.373V65.2951ZM367.373 49.0404H373.607C374.759 49.0404 375.782 48.8397 376.676 48.4383C377.582 48.024 378.294 47.4414 378.812 46.6905C379.343 45.9396 379.608 45.0398 379.608 43.9911C379.608 42.554 379.097 41.3953 378.074 40.5149C377.064 39.6345 375.627 39.1943 373.763 39.1943H367.373V49.0404ZM431.669 52.2836C431.669 56.6208 430.847 60.3106 429.203 63.3531C427.571 66.3956 425.344 68.7196 422.522 70.325C419.713 71.9175 416.554 72.7137 413.045 72.7137C409.51 72.7137 406.338 71.911 403.529 70.3056C400.72 68.7002 398.499 66.3762 396.868 63.3337C395.237 60.2912 394.421 56.6078 394.421 52.2836C394.421 47.9464 395.237 44.2565 396.868 41.214C398.499 38.1715 400.72 35.854 403.529 34.2615C406.338 32.6561 409.51 31.8534 413.045 31.8534C416.554 31.8534 419.713 32.6561 422.522 34.2615C425.344 35.854 427.571 38.1715 429.203 41.214C430.847 44.2565 431.669 47.9464 431.669 52.2836ZM423.143 52.2836C423.143 49.4741 422.723 47.1048 421.881 45.1757C421.053 43.2467 419.881 41.7837 418.366 40.7868C416.851 39.7898 415.078 39.2914 413.045 39.2914C411.012 39.2914 409.239 39.7898 407.724 40.7868C406.209 41.7837 405.031 43.2467 404.189 45.1757C403.361 47.1048 402.946 49.4741 402.946 52.2836C402.946 55.093 403.361 57.4623 404.189 59.3914C405.031 61.3205 406.209 62.7835 407.724 63.7804C409.239 64.7773 411.012 65.2757 413.045 65.2757C415.078 65.2757 416.851 64.7773 418.366 63.7804C419.881 62.7835 421.053 61.3205 421.881 59.3914C422.723 57.4623 423.143 55.093 423.143 52.2836ZM462.465 32.3972H470.874V58.2262C470.874 61.1263 470.181 63.6638 468.796 65.8389C467.423 68.014 465.501 69.71 463.028 70.927C460.555 72.1311 457.674 72.7331 454.386 72.7331C451.084 72.7331 448.197 72.1311 445.724 70.927C443.252 69.71 441.329 68.014 439.957 65.8389C438.584 63.6638 437.898 61.1263 437.898 58.2262V32.3972H446.307V57.5076C446.307 59.0224 446.637 60.3689 447.297 61.547C447.971 62.7252 448.916 63.6509 450.133 64.3241C451.35 64.9974 452.767 65.334 454.386 65.334C456.017 65.334 457.435 64.9974 458.639 64.3241C459.856 63.6509 460.795 62.7252 461.455 61.547C462.128 60.3689 462.465 59.0224 462.465 57.5076V32.3972ZM476.277 39.3302V32.3972H508.942V39.3302H496.766V72.1699H488.454V39.3302H476.277ZM535.388 32.3972V72.1699H526.979V32.3972H535.388ZM540.792 39.3302V32.3972H573.456V39.3302H561.28V72.1699H552.968V39.3302H540.792Z" fill="#26422B"/>
</svg>
