<svg width="105" height="105" viewBox="0 0 105 105" fill="none" xmlns="http://www.w3.org/2000/svg">
<rect x="0.589844" y="0.169922" width="104" height="104" rx="52" fill="#273F2B"/>
<g clip-path="url(#clip0_238_2034)">
<g clip-path="url(#clip1_238_2034)">
<path d="M66.3703 31.0129C66.3701 31.0127 66.3706 31.013 66.3703 31.0129C65.2348 31.3241 64.1428 31.8654 63.1625 32.6441C62.3192 33.3142 61.6283 34.1052 61.0952 34.9727C61.0946 34.9725 61.0957 34.9729 61.0952 34.9727C61.6283 34.1052 62.3192 33.3142 63.1625 32.6441C64.1428 31.8654 65.2348 31.3241 66.3703 31.0129Z" fill="white"/>
<path d="M59.3209 28.0477C57.3856 27.5669 55.3613 27.3118 53.2772 27.3118C39.4783 27.3118 28.292 38.498 28.292 52.297C28.292 56.5508 29.355 60.5561 31.2298 64.062L28.292 77.2821L41.5121 74.3443C45.0181 76.2194 49.0235 77.2821 53.2772 77.2821C67.076 77.2821 78.2623 66.0958 78.2623 52.297C78.2623 51.9466 78.2551 51.5979 78.2409 51.2512C78.1808 51.3005 78.1201 51.3493 78.0589 51.3979C76.2728 52.817 74.2624 53.7624 72.1796 54.2513C71.2013 63.8274 63.1115 71.2987 53.2772 71.2987C50.0317 71.2987 46.9929 70.49 44.3338 69.068L42.3786 68.0223L36.1727 69.4015L37.5517 63.1956L36.5063 61.2403C35.0843 58.5813 34.2755 55.5424 34.2755 52.297C34.2755 41.8026 42.7829 33.2952 53.2772 33.2952C53.9123 33.2952 54.5403 33.3264 55.1593 33.3873C56.0897 31.373 57.4835 29.5365 59.3209 28.0477Z" fill="white"/>
<path d="M63.1634 32.6442C59.2793 35.7299 58.6321 41.3799 61.7177 45.2639C64.8034 49.148 70.4534 49.7952 74.3374 46.7096C78.2215 43.624 78.8687 37.9739 75.7831 34.0899C72.6975 30.2058 67.0474 29.5586 63.1634 32.6442Z" fill="#3DC712"/>
</g>
</g>
<defs>
<clipPath id="clip0_238_2034">
<rect width="72" height="72" fill="white" transform="translate(16.5898 16.1699)"/>
</clipPath>
<clipPath id="clip1_238_2034">
<rect width="72" height="72" fill="white" transform="translate(16.5898 16.1699)"/>
</clipPath>
</defs>
</svg>
