<svg width="536" height="105" viewBox="0 0 536 105" fill="none" xmlns="http://www.w3.org/2000/svg">
<rect x="0.44043" y="0.169922" width="535.13" height="104" rx="52" fill="#E7F9DD"/>
<path d="M35.8874 72.1699V32.5108H51.7665C54.6841 32.5108 57.1176 32.9433 59.067 33.8083C61.0164 34.6732 62.4817 35.8738 63.4628 37.4101C64.444 38.9335 64.9345 40.6892 64.9345 42.6773C64.9345 44.2265 64.6247 45.5885 64.005 46.7633C63.3854 47.9252 62.5333 48.8805 61.4489 49.6293C60.3774 50.3652 59.1509 50.888 57.7696 51.1979V51.5851C59.28 51.6497 60.6937 52.0757 62.0105 52.8632C63.3402 53.6507 64.4182 54.7545 65.2444 56.1746C66.0706 57.5818 66.4837 59.2601 66.4837 61.2094C66.4837 63.3138 65.9609 65.1921 64.9152 66.8446C63.8824 68.4842 62.3526 69.7816 60.3257 70.7369C58.2989 71.6923 55.8008 72.1699 52.8316 72.1699H35.8874ZM44.2723 65.3148H51.1081C53.4448 65.3148 55.1489 64.8694 56.2204 63.9786C57.2919 63.0749 57.8277 61.8743 57.8277 60.3768C57.8277 59.2794 57.563 58.3112 57.0337 57.472C56.5044 56.6329 55.7492 55.9745 54.768 55.4968C53.7998 55.0192 52.6444 54.7803 51.3017 54.7803H44.2723V65.3148ZM44.2723 49.1065H50.4884C51.6374 49.1065 52.6573 48.9064 53.5481 48.5061C54.4517 48.093 55.1618 47.5121 55.6782 46.7633C56.2075 46.0145 56.4721 45.1173 56.4721 44.0716C56.4721 42.6386 55.9622 41.4832 54.9423 40.6053C53.9353 39.7274 52.5024 39.2885 50.6433 39.2885H44.2723V49.1065ZM71.9398 72.1699V32.5108H98.6632V39.4241H80.3247V48.8741H97.2883V55.7873H80.3247V65.2567H98.7406V72.1699H71.9398ZM103.819 39.4241V32.5108H136.391V39.4241H124.249V72.1699H115.961V39.4241H103.819ZM140.244 39.4241V32.5108H172.816V39.4241H160.674V72.1699H152.386V39.4241H140.244ZM178.18 72.1699V32.5108H204.903V39.4241H186.565V48.8741H203.528V55.7873H186.565V65.2567H204.981V72.1699H178.18ZM211.57 72.1699V32.5108H227.216C230.211 32.5108 232.768 33.0466 234.885 34.1181C237.015 35.1767 238.635 36.6807 239.745 38.6301C240.869 40.5666 241.43 42.8452 241.43 45.4659C241.43 48.0995 240.862 50.3652 239.726 52.2629C238.59 54.1478 236.944 55.5937 234.788 56.6006C232.645 57.6076 230.05 58.1111 227.003 58.1111H216.527V51.3721H225.648C227.249 51.3721 228.578 51.1527 229.637 50.7137C230.696 50.2748 231.483 49.6164 231.999 48.7385C232.529 47.8607 232.793 46.7698 232.793 45.4659C232.793 44.1491 232.529 43.0388 231.999 42.1351C231.483 41.2314 230.689 40.5472 229.618 40.0825C228.559 39.6048 227.223 39.366 225.609 39.366H219.955V72.1699H211.57ZM232.987 54.1219L242.844 72.1699H233.587L223.944 54.1219H232.987ZM258.466 39.4241V32.5108H291.038V39.4241H278.896V72.1699H270.608V39.4241H258.466ZM296.402 72.1699V32.5108H304.787V48.8741H321.808V32.5108H330.174V72.1699H321.808V55.7873H304.787V72.1699H296.402ZM343.923 72.1699H334.938L348.629 32.5108H359.434L373.106 72.1699H364.121L354.186 41.5736H353.877L343.923 72.1699ZM343.362 56.5813H364.585V63.1266H343.362V56.5813ZM411.051 32.5108V72.1699H403.809L386.555 47.2087H386.264V72.1699H377.879V32.5108H385.238L402.356 57.4527H402.705V32.5108H411.051ZM455.096 32.5108H463.481V58.266C463.481 61.1578 462.791 63.6881 461.409 65.857C460.041 68.0259 458.124 69.717 455.658 70.9306C453.192 72.1312 450.32 72.7315 447.041 72.7315C443.749 72.7315 440.87 72.1312 438.404 70.9306C435.938 69.717 434.021 68.0259 432.653 65.857C431.284 63.6881 430.6 61.1578 430.6 58.266V32.5108H438.985V57.5495C438.985 59.06 439.314 60.4026 439.972 61.5774C440.644 62.7522 441.586 63.6752 442.8 64.3465C444.013 65.0179 445.427 65.3535 447.041 65.3535C448.667 65.3535 450.081 65.0179 451.281 64.3465C452.495 63.6752 453.431 62.7522 454.089 61.5774C454.761 60.4026 455.096 59.06 455.096 57.5495V32.5108ZM491.894 43.9167C491.739 42.3546 491.075 41.1411 489.9 40.2761C488.725 39.4111 487.131 38.9787 485.117 38.9787C483.748 38.9787 482.593 39.1723 481.65 39.5596C480.708 39.934 479.985 40.4568 479.481 41.1282C478.991 41.7995 478.746 42.5612 478.746 43.4132C478.72 44.1233 478.868 44.7429 479.191 45.2722C479.527 45.8015 479.985 46.2598 480.566 46.6471C481.147 47.0215 481.818 47.3507 482.58 47.6347C483.342 47.9058 484.155 48.1382 485.02 48.3319L488.583 49.1839C490.313 49.5712 491.901 50.0876 493.347 50.7331C494.793 51.3786 496.045 52.1725 497.103 53.115C498.162 54.0574 498.982 55.1676 499.563 56.4457C500.157 57.7238 500.46 59.1891 500.473 60.8415C500.46 63.2686 499.84 65.3729 498.614 67.1544C497.4 68.9231 495.645 70.298 493.347 71.2791C491.062 72.2474 488.305 72.7315 485.078 72.7315C481.876 72.7315 479.088 72.2409 476.712 71.2598C474.35 70.2786 472.504 68.8263 471.174 66.9027C469.857 64.9662 469.166 62.5714 469.102 59.7184H477.216C477.306 61.0481 477.687 62.1583 478.358 63.0491C479.043 63.927 479.953 64.5918 481.089 65.0437C482.238 65.4826 483.535 65.7021 484.981 65.7021C486.401 65.7021 487.634 65.4955 488.68 65.0824C489.738 64.6693 490.558 64.0948 491.139 63.3589C491.72 62.6231 492.01 61.7775 492.01 60.8222C492.01 59.9314 491.746 59.1826 491.217 58.5758C490.7 57.9691 489.938 57.4527 488.931 57.0267C487.937 56.6006 486.717 56.2133 485.272 55.8648L480.953 54.7803C477.61 53.967 474.969 52.6954 473.033 50.9655C471.097 49.2356 470.135 46.9053 470.148 43.9748C470.135 41.5736 470.774 39.4757 472.065 37.6812C473.369 35.8868 475.157 34.486 477.429 33.4791C479.701 32.4721 482.283 31.9686 485.175 31.9686C488.118 31.9686 490.687 32.4721 492.882 33.4791C495.089 34.486 496.806 35.8868 498.033 37.6812C499.259 39.4757 499.892 41.5542 499.931 43.9167H491.894Z" fill="#26422B"/>
</svg>
