<svg width="157" height="40" viewBox="0 0 157 40" fill="none" xmlns="http://www.w3.org/2000/svg">
<g clip-path="url(#clip0_238_2121)">
<g clip-path="url(#clip1_238_2121)">
<g clip-path="url(#clip2_238_2121)">
<path fill-rule="evenodd" clip-rule="evenodd" d="M31.3609 14.7913C33.1748 14.7913 34.6438 13.3203 34.6438 11.5083C34.6438 9.6963 33.1729 8.22532 31.3609 8.22532C29.5489 8.22532 28.0778 9.6963 28.0778 11.5083C28.0778 13.3203 29.5489 14.7913 31.3609 14.7913ZM42.8678 11.5083C42.8678 17.8626 37.7151 23.0152 31.3609 23.0152C25.0065 23.0152 19.854 17.8626 19.854 11.5083C19.854 5.15396 25.0065 0.00146484 31.3609 0.00146484C37.7151 0.00146484 42.8678 5.15396 42.8678 11.5083ZM95.1178 11.5083C95.1178 13.3224 93.6469 14.7913 91.8349 14.7913C90.0229 14.7913 88.552 13.3203 88.552 11.5083C88.552 9.6963 90.0229 8.22532 91.8349 8.22532C93.6469 8.22532 95.1178 9.6963 95.1178 11.5083ZM91.8349 23.0152C98.1894 23.0152 103.342 17.8626 103.342 11.5083C103.342 5.15396 98.1894 0.00146484 91.8349 0.00146484C85.4806 0.00146484 80.328 5.15396 80.328 11.5083C80.328 17.8626 85.4786 23.0152 91.8349 23.0152ZM148.332 11.5083C148.332 13.3224 146.861 14.7913 145.049 14.7913C143.237 14.7913 141.766 13.3203 141.766 11.5083C141.766 9.6963 143.237 8.22532 145.049 8.22532C146.861 8.22532 148.332 9.6963 148.332 11.5083ZM145.049 23.0152C151.403 23.0152 156.556 17.8626 156.556 11.5083C156.556 5.15396 151.403 0.00146484 145.047 0.00146484C138.69 0.00146484 133.54 5.15396 133.54 11.5083C133.54 17.8626 138.692 23.0152 145.047 23.0152H145.049ZM75.5083 3.07282C73.7067 1.10469 71.2249 0.541778 68.9445 0.541778H64.6856V4.49448C64.4185 4.0035 64.0859 3.5248 63.6707 3.07282C61.8691 1.10469 59.3873 0.541778 57.1069 0.541778H53.6533V0.537671H45.0741V22.4173H53.6533V9.12107H57.1069C57.1193 9.12107 57.1317 9.12107 57.1418 9.12107V22.4173H65.721V9.12107H68.9568H68.9774V22.4173H77.5566V9.06766C77.5566 7.32549 77.2361 4.96496 75.5043 3.07282H75.5083ZM107.383 3.2002C109.184 1.23207 111.666 0.669153 113.947 0.669153H118.203V9.24844H113.926H113.91V22.5447H105.33V9.19503C105.33 7.45286 105.651 5.09233 107.381 3.2002H107.383ZM128.067 0.669153C125.786 0.669153 123.305 1.23001 121.503 3.2002C119.771 5.09233 119.451 7.45286 119.451 9.19503V22.5447H128.03V9.2505C128.042 9.2505 128.055 9.2505 128.065 9.2505H132.324V0.669153H128.065H128.067ZM13.6229 9.17653V22.3228H5.04363V9.17653H0V0.597248H5.04157V0.593141H13.6208V0.597248H18.6645V9.17653H13.6208H13.6229Z" fill="white"/>
<path d="M84.4929 36.63C81.7956 36.63 80.1709 35.0053 80.1709 32.4973C80.1709 29.9735 81.8271 28.333 84.3351 28.333C86.7643 28.333 88.4048 29.8473 88.4363 32.2291C88.4363 32.4657 88.4205 32.7339 88.3732 32.9863H82.4896V33.0967C82.5369 34.2482 83.2783 34.9422 84.3982 34.9422C85.2973 34.9422 85.9283 34.5479 86.1176 33.7907H88.3101C88.0577 35.3681 86.6539 36.63 84.4929 36.63ZM82.5369 31.5351H86.1964C86.0387 30.5413 85.3604 29.9893 84.3509 29.9893C83.3887 29.9893 82.6631 30.5729 82.5369 31.5351ZM88.4155 36.5353L91.4285 32.4026L88.5577 28.4277H91.0973L92.7693 30.8253L94.4886 28.4277H96.8862L94.0312 32.4026L97.0439 36.5353H94.5044L92.6431 33.9958L90.7976 36.5353H88.4155ZM108.591 36.5353H101.84V25.4937H104.206V34.5005H108.591V36.5353ZM113.437 36.63C110.74 36.63 109.115 35.0053 109.115 32.4973C109.115 29.9735 110.771 28.333 113.279 28.333C115.708 28.333 117.349 29.8473 117.38 32.2291C117.38 32.4657 117.365 32.7339 117.317 32.9863H111.434V33.0967C111.481 34.2482 112.222 34.9422 113.342 34.9422C114.241 34.9422 114.872 34.5479 115.062 33.7907H117.254C117.002 35.3681 115.598 36.63 113.437 36.63ZM111.481 31.5351H115.141C114.983 30.5413 114.305 29.9893 113.295 29.9893C112.333 29.9893 111.607 30.5729 111.481 31.5351ZM122.602 36.63C119.905 36.63 118.28 35.0053 118.28 32.4973C118.28 29.9735 119.937 28.333 122.445 28.333C124.874 28.333 126.514 29.8473 126.546 32.2291C126.546 32.4657 126.53 32.7339 126.483 32.9863H120.599V33.0967C120.646 34.2482 121.388 34.9422 122.508 34.9422C123.407 34.9422 124.038 34.5479 124.227 33.7907H126.42C126.167 35.3681 124.763 36.63 122.602 36.63ZM120.646 31.5351H124.306C124.148 30.5413 123.47 29.9893 122.46 29.9893C121.498 29.9893 120.773 30.5729 120.646 31.5351ZM129.346 36.5353L126.696 28.4277H129.046L130.671 34.1377L132.201 28.4277H134.204L135.687 34.1535L137.343 28.4277H139.614L136.949 36.5353H134.582L133.163 31.6455L131.712 36.5353H129.346ZM147.752 34.6583H148.004V36.5353H146.868C145.717 36.5353 145.354 35.9833 145.37 35.2103C144.802 36.1094 143.982 36.63 142.72 36.63C140.969 36.63 139.707 35.794 139.707 34.2482C139.707 32.5288 141.001 31.5509 143.43 31.5509H145.039V31.1565C145.039 30.4309 144.518 29.9577 143.588 29.9577C142.72 29.9577 142.136 30.3521 142.042 30.9515H139.896C140.054 29.3741 141.505 28.333 143.651 28.333C145.922 28.333 147.231 29.3425 147.231 31.2827V34.1535C147.231 34.5794 147.405 34.6583 147.752 34.6583ZM145.039 33.1913V33.0336H143.414C142.483 33.0336 141.947 33.4121 141.947 34.0904C141.947 34.6583 142.405 35.0211 143.146 35.0211C144.313 35.0211 145.023 34.2955 145.039 33.1913ZM150.829 36.5827L147.706 28.4277H150.072L152.044 34.2008L153.968 28.4277H156.35L152.754 37.6868C152.249 39.0276 151.839 39.6901 150.577 39.6901H148.416V37.813H149.646C150.214 37.813 150.403 37.671 150.624 37.119L150.829 36.5827Z" fill="white"/>
</g>
</g>
</g>
<defs>
<clipPath id="clip0_238_2121">
<rect width="156.61" height="40" fill="white"/>
</clipPath>
<clipPath id="clip1_238_2121">
<rect width="156.61" height="40" fill="white"/>
</clipPath>
<clipPath id="clip2_238_2121">
<rect width="156.61" height="39.9975" fill="white" transform="translate(0 0.00146484)"/>
</clipPath>
</defs>
</svg>
